<svg width="20" height="20" viewBox="0 0 20 20" fill="none" xmlns="http://www.w3.org/2000/svg">
<path d="M16.75 13V7.00005C16.7497 6.737 16.6803 6.47866 16.5487 6.25092C16.417 6.02319 16.2278 5.83407 16 5.70255L10.75 2.70255C10.522 2.5709 10.2633 2.50159 10 2.50159C9.7367 2.50159 9.47803 2.5709 9.25 2.70255L4 5.70255C3.7722 5.83407 3.58299 6.02319 3.45135 6.25092C3.31971 6.47866 3.25027 6.737 3.25 7.00005V13C3.25027 13.2631 3.31971 13.5214 3.45135 13.7492C3.58299 13.9769 3.7722 14.166 4 14.2975L9.25 17.2975C9.47803 17.4292 9.7367 17.4985 10 17.4985C10.2633 17.4985 10.522 17.4292 10.75 17.2975L16 14.2975C16.2278 14.166 16.417 13.9769 16.5487 13.7492C16.6803 13.5214 16.7497 13.2631 16.75 13Z" stroke="#818898" stroke-width="1.5" stroke-linecap="round" stroke-linejoin="round"/>
<path d="M3.45251 6.21997L10 10.0075L16.5475 6.21997" stroke="#818898" stroke-width="1.5" stroke-linecap="round" stroke-linejoin="round"/>
<path d="M10 17.56V10" stroke="#818898" stroke-width="1.5" stroke-linecap="round" stroke-linejoin="round"/>
</svg>
