<svg width="28" height="28" viewBox="0 0 28 28" fill="none" xmlns="http://www.w3.org/2000/svg">
<g filter="url(#filter0_dd_13_20048)">
<rect x="2" y="1" width="24" height="24" rx="6" fill="white"/>
<rect x="2" y="1" width="24" height="24" rx="6" fill="url(#paint0_linear_13_20048)" fill-opacity="0.02"/>
<path d="M19.25 13.75C19.6642 13.75 20 13.4142 20 13C20 12.5858 19.6642 12.25 19.25 12.25C18.8358 12.25 18.5 12.5858 18.5 13C18.5 13.4142 18.8358 13.75 19.25 13.75Z" stroke="#666D80" stroke-width="1.5" stroke-linecap="round" stroke-linejoin="round"/>
<path d="M14 13.75C14.4142 13.75 14.75 13.4142 14.75 13C14.75 12.5858 14.4142 12.25 14 12.25C13.5858 12.25 13.25 12.5858 13.25 13C13.25 13.4142 13.5858 13.75 14 13.75Z" stroke="#666D80" stroke-width="1.5" stroke-linecap="round" stroke-linejoin="round"/>
<path d="M8.75 13.75C9.16421 13.75 9.5 13.4142 9.5 13C9.5 12.5858 9.16421 12.25 8.75 12.25C8.33579 12.25 8 12.5858 8 13C8 13.4142 8.33579 13.75 8.75 13.75Z" stroke="#666D80" stroke-width="1.5" stroke-linecap="round" stroke-linejoin="round"/>
</g>
<defs>
<filter id="filter0_dd_13_20048" x="0" y="0" width="28" height="28" filterUnits="userSpaceOnUse" color-interpolation-filters="sRGB">
<feFlood flood-opacity="0" result="BackgroundImageFix"/>
<feColorMatrix in="SourceAlpha" type="matrix" values="0 0 0 0 0 0 0 0 0 0 0 0 0 0 0 0 0 0 127 0" result="hardAlpha"/>
<feMorphology radius="1" operator="dilate" in="SourceAlpha" result="effect1_dropShadow_13_20048"/>
<feOffset/>
<feComposite in2="hardAlpha" operator="out"/>
<feColorMatrix type="matrix" values="0 0 0 0 0.0696 0 0 0 0 0.215657 0 0 0 0 0.4104 0 0 0 0.08 0"/>
<feBlend mode="normal" in2="BackgroundImageFix" result="effect1_dropShadow_13_20048"/>
<feColorMatrix in="SourceAlpha" type="matrix" values="0 0 0 0 0 0 0 0 0 0 0 0 0 0 0 0 0 0 127 0" result="hardAlpha"/>
<feOffset dy="1"/>
<feGaussianBlur stdDeviation="1"/>
<feComposite in2="hardAlpha" operator="out"/>
<feColorMatrix type="matrix" values="0 0 0 0 0.643275 0 0 0 0 0.672823 0 0 0 0 0.725353 0 0 0 0.24 0"/>
<feBlend mode="normal" in2="effect1_dropShadow_13_20048" result="effect2_dropShadow_13_20048"/>
<feBlend mode="normal" in="SourceGraphic" in2="effect2_dropShadow_13_20048" result="shape"/>
</filter>
<linearGradient id="paint0_linear_13_20048" x1="14" y1="1" x2="14" y2="25" gradientUnits="userSpaceOnUse">
<stop stop-color="white" stop-opacity="0"/>
<stop offset="1" stop-color="#C1C7D0"/>
</linearGradient>
</defs>
</svg>
