<svg width="13" height="15" viewBox="0 0 13 15" fill="none" xmlns="http://www.w3.org/2000/svg">
<g id="Group">
<path id="Vector" d="M13 6.5732C13 6.44948 13 6.32577 12.9919 6.20206H13C12.8138 2.74639 10.0054 0 6.56571 0C6.43622 0 6.31482 0 6.19342 0.00824742C2.80228 0.197938 0.107178 3.05979 0.107178 6.56495C0.107178 10.0124 2.71325 12.8412 6.03155 13.1134C6.11248 13.1216 6.18533 13.0474 6.18533 12.9649V9.53402C6.2177 9.36082 6.37148 9.23711 6.54953 9.23711C6.75187 9.23711 6.92182 9.41031 6.92182 9.61649V14.3588C6.92182 14.4907 7.0675 14.5649 7.17272 14.4825L8.46766 13.4268L10.4991 11.7608C12.0207 10.5567 13 8.68454 13 6.5732Z" fill="black"/>
<path id="Vector_2" d="M6.54949 9.80586C8.81125 9.80586 10.6448 7.93746 10.6448 5.63267C10.6448 3.32788 8.81125 1.45947 6.54949 1.45947C4.28774 1.45947 2.45422 3.32788 2.45422 5.63267C2.45422 7.93746 4.28774 9.80586 6.54949 9.80586Z" fill="white"/>
<path id="Vector_3" d="M6.18524 8.27227C6.21761 8.28876 6.57372 8.41247 6.91364 8.27227C7.05933 8.19804 7.205 8.12381 7.205 7.90938C7.205 7.73618 7.04314 7.56299 6.54135 7.56299C6.03956 7.56299 5.87769 7.73618 5.87769 7.90938C5.89387 8.12381 6.03956 8.20629 6.18524 8.27227Z" fill="black"/>
<g id="Group_2">
<path id="Vector_4" d="M9.1637 7.60413C9.30938 7.3732 9.4146 7.10928 9.4146 6.81238C9.4146 6.05361 8.80759 5.43506 8.06299 5.43506C7.90922 5.43506 7.75544 5.4598 7.61786 5.50929C7.61786 5.50929 7.09988 5.71547 7.01085 6.25155C6.92182 6.78764 7.38315 6.89485 7.67452 6.97733C7.96588 7.0598 8.24105 7.32372 8.35435 7.48867C8.46766 7.65362 8.56479 7.78557 8.78331 7.78557C9.00183 7.78557 9.09895 7.71135 9.1637 7.60413Z" fill="black"/>
<path id="Vector_5" d="M3.7432 7.54822C3.59752 7.31729 3.49231 7.05338 3.49231 6.75647C3.49231 5.99771 4.09932 5.37915 4.84392 5.37915C4.99769 5.37915 5.15146 5.40389 5.28905 5.45338C5.28905 5.45338 5.80703 5.65956 5.89606 6.19565C5.98509 6.73173 5.52376 6.83894 5.23239 6.92142C4.94103 7.00389 4.66585 7.26781 4.55254 7.43276C4.43924 7.59771 4.34212 7.72967 4.1236 7.72967C3.91317 7.74616 3.80795 7.65544 3.7432 7.54822Z" fill="black"/>
</g>
</g>
</svg>
