<svg width="110" height="24" viewBox="0 0 110 24" fill="none" xmlns="http://www.w3.org/2000/svg">
<g id="Group">
<g id="Group_2">
<g id="Group_3">
<path id="Vector" d="M34.5758 7.07575C32.7872 6.34173 31.0714 6.96854 30.1407 8.69225C30.084 8.80771 29.9545 8.88194 29.8574 8.97266C29.8331 8.84895 29.7845 8.71699 29.7845 8.59328C29.7765 8.07369 29.7845 7.56235 29.7845 7.03452H27.0085V19.2489H29.8817V18.8861C29.8817 16.9479 29.8817 15.018 29.8817 13.0799C29.8817 12.7912 29.8979 12.5026 29.9383 12.2221C30.0759 11.0758 30.9419 10.0201 31.986 9.73142C32.7305 9.52524 33.4509 9.69843 34.155 9.96235C34.3088 10.0201 34.4787 10.0696 34.6892 10.1355C34.7134 9.12111 34.7377 8.18091 34.7539 7.24895C34.7458 7.19122 34.6487 7.10874 34.5758 7.07575ZM9.09778 14.6716C8.74976 15.8345 8.02944 16.6428 6.83162 16.8819C5.6257 17.1211 4.58974 16.7582 3.79659 15.7768C2.73635 14.4654 2.63923 12.2056 3.57807 10.7706C4.28219 9.69843 5.28578 9.21183 6.53216 9.33555C7.82711 9.4675 8.65264 10.2345 9.07349 11.4799V11.4881H12.1166C11.8414 10.0943 11.2587 8.87369 10.1256 8.01596C8.078 6.4572 5.81994 6.27575 3.52951 7.30668C1.23098 8.34586 0.122178 10.284 0.00886975 12.8077C-0.0882512 14.9768 0.607783 16.8407 2.31549 18.218C3.85324 19.4551 5.63379 19.785 7.54384 19.4304C9.22727 19.117 10.5465 18.2263 11.4206 16.7005C11.7929 16.0407 12.0357 15.3314 12.1409 14.5644H9.13015C9.12206 14.5974 9.10587 14.6304 9.09778 14.6716ZM43.6243 19.0922C43.6324 19.084 43.6324 19.0675 43.6324 19.0593C43.6162 18.284 43.5838 17.5005 43.5514 16.684C42.7664 17.0634 41.957 16.9149 41.957 16.9149C41.1477 16.8407 40.6702 16.4201 40.5002 15.6118C40.4355 15.3149 40.4193 15.0015 40.4193 14.6964C40.4193 13.0799 40.4355 11.4551 40.4436 9.83864C40.4436 9.74792 40.4517 9.6572 40.4598 9.53348H43.5595V7.00977H40.4517V3.44689C40.3545 3.43864 40.2736 3.43039 40.1927 3.43039C39.4076 3.43039 38.6226 3.43864 37.8375 3.42214C37.6028 3.4139 37.5461 3.50462 37.5542 3.7273C37.5623 4.71699 37.5542 5.69843 37.5461 6.68812C37.5461 6.78709 37.538 6.88606 37.5299 7.02627H35.5956V9.56647H37.5461C37.5461 9.69843 37.5461 9.7974 37.5461 9.89637C37.538 11.5046 37.5219 13.1129 37.5219 14.7211C37.5219 15.216 37.538 15.7108 37.6109 16.1974C37.7889 17.3603 38.2745 18.3665 39.3186 18.952C40.0146 19.3397 40.7268 19.5376 41.4472 19.5623C41.4876 19.5706 41.5443 19.5788 41.609 19.5788C42.475 19.5788 43.6405 19.3727 43.6405 19.3727L43.6243 19.0922ZM24.362 16.7417C24.2163 16.7417 24.0949 16.6263 24.0949 16.4778C24.103 14.9768 24.103 13.4758 24.0949 11.9747C24.0949 11.5706 24.0868 11.15 24.0301 10.7541C23.7873 9.09637 22.9861 7.84276 21.424 7.20771C19.7649 6.53142 18.0572 6.52318 16.3576 7.07575C14.7874 7.58709 13.7596 8.65101 13.3873 10.317C13.3064 10.6799 13.2983 11.0593 13.2497 11.4799H16.131C16.139 11.3974 16.1471 11.3149 16.1552 11.2325C16.2362 10.4407 16.6004 9.83039 17.3288 9.51699C18.2029 9.13761 19.1093 9.14585 20.0077 9.44276C20.2505 9.52524 20.4852 9.68194 20.6714 9.86338C21.4402 10.6221 21.2136 11.6366 20.21 11.9912C20.1048 12.0242 19.9996 12.0654 19.8944 12.0819C19.2469 12.2056 18.5994 12.3129 17.9601 12.4366C17.0455 12.6015 16.1229 12.7417 15.2164 12.9562C14.4232 13.1376 13.7839 13.5995 13.4763 14.3912C12.845 16.016 13.274 18.2428 15.3297 19.1665C17.175 19.9912 19.4493 19.4964 20.8413 18.0283C21.0841 17.7562 21.2703 17.517 21.3917 17.3355L21.4807 18.4325C21.5212 18.8861 21.8935 19.2407 22.3386 19.2407H25.924V16.7417C25.3979 16.7417 24.8799 16.7335 24.362 16.7417ZM21.157 14.3417C21.157 14.3582 21.157 14.3665 21.157 14.383C21.157 14.6304 21.1489 14.8696 21.1165 15.1087C20.9708 16.0325 20.3395 16.5603 19.514 16.8654C18.6399 17.1871 17.7658 17.2118 16.9079 16.7995C16.4385 16.5685 16.1552 16.2056 16.1795 15.6366C16.2038 15.0428 16.479 14.6221 17.0293 14.4737C17.7658 14.2675 18.5185 14.1355 19.2712 13.9871C19.8458 13.8716 20.4367 13.7974 20.9546 13.484C21.0437 13.4263 21.1408 13.3438 21.1732 13.2613C21.157 13.2531 21.1489 13.7892 21.157 14.3417Z" fill="#1E54F5"/>
</g>
</g>
<g id="Group_4">
<path id="Vector_2" d="M96.3287 19.2577C95.6083 19.2577 94.9285 19.2577 94.2163 19.2577C94.2163 18.5897 94.2163 17.9299 94.2163 17.2783C93.9978 17.1546 93.9411 17.3031 93.8602 17.4268C93.1479 18.5154 92.1605 19.2082 90.9061 19.4474C88.6399 19.8845 86.6894 19.002 85.4349 17.0226C83.9053 14.6144 84.059 10.9773 85.7829 8.74223C87.6444 6.32573 91.157 5.99584 93.2613 8.0412C93.4717 8.24738 93.6497 8.50305 93.844 8.72573C93.9087 8.79996 94.0058 8.83295 94.0868 8.89068C94.1192 8.79996 94.1758 8.70924 94.1758 8.61852C94.1839 6.37522 94.1839 2.62264 94.1758 0.379342C94.1758 0.0824349 94.2486 -0.00828674 94.54 0.0082081C95.0418 0.0329504 95.5436 0.0247029 96.0373 0.0082081C96.272 -3.93209e-05 96.3287 0.0824349 96.3287 0.313363C96.3206 1.77316 96.3287 19.1092 96.3287 19.2577ZM94.1839 13.0226C94.1839 12.2226 93.9897 11.4061 93.6012 10.6639C92.2981 8.18965 88.9313 7.97522 87.3773 10.2762C86.3333 11.8185 86.3009 14.2845 87.3045 15.868C88.7127 18.0948 91.764 18.202 93.3098 16.0659C93.9411 15.2 94.1758 14.1938 94.1839 13.0226Z" fill="black"/>
<path id="Vector_3" d="M47.5416 17.3855C47.5416 19.5793 47.5416 21.7813 47.5416 23.9999C46.8294 23.9999 46.1414 23.9999 45.4292 23.9999C45.4292 18.3504 45.4292 12.7009 45.4292 7.02669C46.101 7.02669 46.7727 7.02669 47.493 7.02669C47.493 7.68648 47.493 8.35453 47.493 9.02257C47.5173 9.03906 47.5416 9.05556 47.574 9.07205C47.6468 9.02257 47.7439 8.98133 47.7925 8.91535C49.4435 6.18545 53.9273 5.65762 56.2015 9.12978C57.8445 11.637 57.6664 15.4391 55.7969 17.6989C53.6845 20.2556 50.2772 19.9422 48.5614 18.3174C48.3024 18.07 48.1 17.7731 47.8653 17.5009C47.8006 17.4267 47.7115 17.3772 47.6306 17.3112C47.5901 17.336 47.5659 17.3607 47.5416 17.3855ZM55.117 13.0226C55.1251 12.3958 54.9956 11.6782 54.7123 10.9937C53.6197 8.35453 50.2367 7.85143 48.5128 10.07C47.2259 11.7195 47.2178 14.5236 48.4885 16.1813C49.9453 18.0782 52.778 18.0782 54.2025 16.1648C54.8742 15.2741 55.1251 14.2432 55.117 13.0226Z" fill="black"/>
<path id="Vector_4" d="M61.1142 11.3648H58.9695C58.9533 10.3256 59.1961 9.42661 59.7707 8.62661C60.5072 7.59568 61.5513 7.06785 62.7491 6.83692C63.8579 6.62249 64.9667 6.63898 66.0593 6.95238C67.7751 7.43898 68.7868 8.61011 69.1186 10.3668C69.2238 10.9029 69.2562 11.4555 69.2562 11.9998C69.2724 13.6493 69.2643 15.307 69.2643 16.9648C69.2643 17.0802 69.2643 17.1957 69.2643 17.3441H70.6402V19.2575H68.5359C67.856 19.2575 67.2976 18.7132 67.2571 18.0204L67.2329 17.5833C67.1924 17.5668 67.1924 17.5668 67.1519 17.5503C67.0791 17.6245 66.9901 17.6905 66.9253 17.773C65.4928 19.5462 62.6277 20.107 60.6772 19.0019C58.9128 17.9957 58.5567 15.9751 59.1799 14.4575C59.536 13.5916 60.2401 13.1215 61.1061 12.9318C62.3606 12.6596 63.6394 12.4617 64.9019 12.2142C65.3552 12.1235 65.8084 12.0328 66.2374 11.8678C66.8929 11.6122 67.1195 11.1008 66.9577 10.3998C66.7796 9.6163 66.3021 9.09671 65.5737 8.84929C64.6349 8.52764 63.6798 8.52764 62.7491 8.87403C61.7131 9.25341 61.2275 10.0699 61.1223 11.1586C61.1223 11.2245 61.1223 11.2905 61.1142 11.3648ZM67.1357 13.0967C66.812 13.2617 66.5773 13.4349 66.3021 13.5091C65.7032 13.674 65.0881 13.7895 64.4811 13.9215C63.7041 14.0864 62.911 14.2019 62.1502 14.4245C61.3813 14.6472 61.0576 15.2081 61.1385 16.0163C61.1952 16.6349 61.5594 17.0555 62.0854 17.3276C62.741 17.6658 63.4451 17.74 64.1574 17.6245C65.2662 17.4431 66.205 16.973 66.8039 15.9503C67.3138 15.0678 67.0791 14.0947 67.1357 13.0967Z" fill="black"/>
<path id="Vector_5" d="M100.481 11.3648H98.3358C98.3196 10.3256 98.5624 9.42661 99.1371 8.62661C99.8736 7.59568 100.918 7.06785 102.115 6.83692C103.224 6.62249 104.333 6.63898 105.426 6.95238C107.141 7.43898 108.153 8.61011 108.485 10.3668C108.59 10.9029 108.623 11.4555 108.623 11.9998C108.639 13.6493 108.631 15.307 108.631 16.9648C108.631 17.0802 108.631 17.1957 108.631 17.3441H110.007V19.2575H107.902C107.222 19.2575 106.664 18.7132 106.623 18.0204L106.599 17.5833C106.559 17.5668 106.559 17.5668 106.518 17.5503C106.445 17.6245 106.356 17.6905 106.292 17.773C104.859 19.5462 101.994 20.107 100.044 19.0019C98.2792 17.9957 97.923 15.9751 98.5462 14.4575C98.9023 13.5916 99.6065 13.1215 100.472 12.9318C101.727 12.6596 103.006 12.4617 104.268 12.2142C104.722 12.1235 105.175 12.0328 105.604 11.8678C106.259 11.6122 106.486 11.1008 106.324 10.3998C106.146 9.6163 105.668 9.09671 104.94 8.84929C104.001 8.52764 103.046 8.52764 102.115 8.87403C101.079 9.25341 100.594 10.0699 100.489 11.1586C100.489 11.2245 100.489 11.2905 100.481 11.3648ZM106.502 13.0967C106.178 13.2617 105.944 13.4349 105.668 13.5091C105.07 13.674 104.454 13.7895 103.847 13.9215C103.07 14.0864 102.277 14.2019 101.517 14.4245C100.748 14.6472 100.424 15.2081 100.505 16.0163C100.562 16.6349 100.926 17.0555 101.452 17.3276C102.107 17.6658 102.811 17.74 103.524 17.6245C104.632 17.4431 105.571 16.973 106.17 15.9503C106.672 15.0678 106.445 14.0947 106.502 13.0967Z" fill="black"/>
<path id="Vector_6" d="M82.9422 19.2741C82.2785 19.2741 81.6391 19.2741 81.0079 19.2741C80.9512 19.2741 80.8946 19.2658 80.7974 19.2576C80.7974 19.1339 80.7974 19.0184 80.7974 18.9029C80.7974 16.7504 80.8136 14.5978 80.7893 12.4452C80.7812 11.8761 80.7084 11.2823 80.5384 10.7462C80.1338 9.46788 79.1464 8.7751 77.8191 8.73386C76.0142 8.67613 74.5493 9.82252 74.2175 11.5792C74.1608 11.8679 74.1608 12.1648 74.1608 12.4534C74.1527 14.5978 74.1608 16.7421 74.1608 18.8864C74.1608 19.0019 74.1608 19.1174 74.1608 19.2493C73.4324 19.2493 72.7364 19.2493 72.0242 19.2493C72.0242 15.1751 72.0242 11.1091 72.0242 7.01839C72.7283 7.01839 73.4243 7.01839 74.1608 7.01839C74.1608 7.59571 74.1608 8.16479 74.1608 8.74211C74.1932 8.7586 74.2175 8.7751 74.2499 8.79159C74.3389 8.70912 74.4441 8.64314 74.5088 8.54417C76.0385 6.3751 78.9359 6.29262 80.6113 7.34829C81.971 8.20602 82.6508 9.50912 82.9017 11.0761C82.9503 11.373 82.9665 11.6782 82.9665 11.9833C82.9746 14.3091 82.9665 16.6431 82.9665 18.9689C82.9584 19.0596 82.9422 19.1504 82.9422 19.2741Z" fill="black"/>
</g>
</g>
</svg>
