<svg width="23" height="14" viewBox="0 0 23 14" fill="none" xmlns="http://www.w3.org/2000/svg">
<g id="Mastercard">
<path id="Left" fill-rule="evenodd" clip-rule="evenodd" d="M11.5501 12.1569C10.3585 13.1852 8.81281 13.806 7.12382 13.806C3.35515 13.806 0.300049 10.7154 0.300049 6.90299C0.300049 3.09057 3.35515 0 7.12382 0C8.81281 0 10.3585 0.620752 11.5501 1.64903C12.7416 0.620752 14.2873 0 15.9763 0C19.7449 0 22.8001 3.09057 22.8001 6.90299C22.8001 10.7154 19.7449 13.806 15.9763 13.806C14.2873 13.806 12.7416 13.1852 11.5501 12.1569Z" fill="#ED0006"/>
<path id="Right" fill-rule="evenodd" clip-rule="evenodd" d="M11.55 12.1569C13.0172 10.8908 13.9476 9.0068 13.9476 6.90299C13.9476 4.79917 13.0172 2.91517 11.55 1.64903C12.7416 0.620752 14.2873 0 15.9763 0C19.7449 0 22.8001 3.09057 22.8001 6.90299C22.8001 10.7154 19.7449 13.806 15.9763 13.806C14.2873 13.806 12.7416 13.1852 11.55 12.1569Z" fill="#F9A000"/>
<path id="Middle" fill-rule="evenodd" clip-rule="evenodd" d="M11.5501 1.64905C13.0173 2.91518 13.9476 4.79917 13.9476 6.90297C13.9476 9.00678 13.0173 10.8908 11.5501 12.1569C10.0829 10.8908 9.15259 9.00678 9.15259 6.90297C9.15259 4.79917 10.0829 2.91518 11.5501 1.64905Z" fill="#FF5E00"/>
</g>
</svg>
