<svg width="20" height="20" viewBox="0 0 20 20" fill="none" xmlns="http://www.w3.org/2000/svg">
<path d="M18.25 16.75V15.25C18.2495 14.5853 18.0283 13.9396 17.621 13.4143C17.2138 12.8889 16.6436 12.5137 16 12.3475" stroke="#818898" stroke-width="1.5" stroke-linecap="round" stroke-linejoin="round"/>
<path d="M13.75 16.75V15.25C13.75 14.4544 13.4339 13.6913 12.8713 13.1287C12.3087 12.5661 11.5456 12.25 10.75 12.25H4.75C3.95435 12.25 3.19129 12.5661 2.62868 13.1287C2.06607 13.6913 1.75 14.4544 1.75 15.25V16.75" stroke="#818898" stroke-width="1.5" stroke-linecap="round" stroke-linejoin="round"/>
<path d="M13 3.34753C13.6453 3.51276 14.2173 3.88806 14.6257 4.41427C15.0342 4.94047 15.2559 5.58766 15.2559 6.25378C15.2559 6.91991 15.0342 7.56709 14.6257 8.0933C14.2173 8.61951 13.6453 8.99481 13 9.16003" stroke="#818898" stroke-width="1.5" stroke-linecap="round" stroke-linejoin="round"/>
<path d="M7.75 9.25C9.40685 9.25 10.75 7.90685 10.75 6.25C10.75 4.59315 9.40685 3.25 7.75 3.25C6.09315 3.25 4.75 4.59315 4.75 6.25C4.75 7.90685 6.09315 9.25 7.75 9.25Z" stroke="#818898" stroke-width="1.5" stroke-linecap="round" stroke-linejoin="round"/>
</svg>
